<svg data-v-423bf9ae="" xmlns="http://www.w3.org/2000/svg" viewBox="0 0 273.73493043778916 60" class="font"><!----><!----><!----><g data-v-423bf9ae="" id="091d9412-f850-4613-b843-93e6b355e5a5" fill="white" transform="matrix(6.024096362469775,0,0,6.024096362469775,-1.5060214292630008,-44.45783232126722)"><path d="M8.30 7.59L9.42 7.38L9.51 7.49L9.51 7.49Q9.30 11.14 9.30 17.09L9.30 17.09L8.79 17.09L8.79 17.09Q8.29 16.52 7.85 15.97L7.85 15.97L5.63 13.20L5.63 13.20Q4.24 11.48 2.35 9.32L2.35 9.32L2.35 9.32Q2.26 9.19 2.20 9.19L2.20 9.19L2.20 9.19Q2.10 9.19 2.10 9.43L2.10 9.43L2.10 9.43Q2.10 11.56 2.43 16.74L2.43 16.74L1.46 17.16L1.33 17.04L1.33 17.04Q1.51 13.43 1.51 10.38L1.51 10.38L1.51 10.38Q1.51 10.08 1.50 9.48L1.50 9.48L1.50 9.48Q1.50 8.88 1.50 8.58L1.50 8.58L1.50 8.58Q1.50 8.55 1.50 8.49L1.50 8.49L1.50 8.49Q1.50 8.43 1.50 8.41L1.50 8.41L1.50 8.41Q1.50 8.39 1.48 8.35L1.48 8.35L1.48 8.35Q1.47 8.30 1.44 8.28L1.44 8.28L1.44 8.28Q1.41 8.26 1.35 8.22L1.35 8.22L1.35 8.22Q1.29 8.18 1.21 8.16L1.21 8.16L1.21 8.16Q1.12 8.13 0.99 8.09L0.99 8.09L0.99 8.09Q0.87 8.05 0.70 8.00L0.70 8.00L0.70 8.00Q0.53 7.96 0.31 7.91L0.31 7.91L0.25 7.53L0.36 7.43L2.63 7.43L2.63 7.43Q3.98 9.21 4.67 10.12L4.67 10.12L4.67 10.12Q5.37 11.03 6.50 12.44L6.50 12.44L6.50 12.44Q7.64 13.86 8.40 14.67L8.40 14.67L8.40 14.67Q8.51 14.78 8.55 14.78L8.55 14.78L8.55 14.78Q8.64 14.78 8.64 14.67L8.64 14.67L8.64 14.67Q8.64 12.54 8.30 7.59L8.30 7.59ZM18.45 15.59L18.56 15.62L18.71 15.89L18.71 15.89Q18.28 16.26 17.98 16.50L17.98 16.50L17.98 16.50Q17.67 16.74 17.23 16.97L17.23 16.97L17.23 16.97Q16.79 17.20 16.46 17.20L16.46 17.20L16.46 17.20Q15.59 17.20 15.49 16.19L15.49 16.19L15.38 16.18L15.38 16.18Q13.67 17.23 12.75 17.23L12.75 17.23L12.75 17.23Q12.32 17.23 12.01 17.08L12.01 17.08L12.01 17.08Q11.71 16.93 11.56 16.67L11.56 16.67L11.56 16.67Q11.41 16.41 11.34 16.13L11.34 16.13L11.34 16.13Q11.28 15.85 11.28 15.52L11.28 15.52L11.28 15.52Q11.28 15.29 11.31 14.36L11.31 14.36L11.31 14.36Q11.33 13.43 11.33 13.24L11.33 13.24L11.33 13.24Q11.33 12.32 11.29 12.01L11.29 12.01L11.29 12.01Q11.24 11.70 11.09 11.55L11.09 11.55L11.09 11.55Q10.99 11.42 10.71 11.42L10.71 11.42L10.71 11.42Q10.44 11.42 9.71 11.84L9.71 11.84L9.53 11.56L9.53 11.56Q9.95 11.24 10.16 11.08L10.16 11.08L10.16 11.08Q10.38 10.93 10.77 10.74L10.77 10.74L10.77 10.74Q11.16 10.54 11.43 10.54L11.43 10.54L11.43 10.54Q11.99 10.54 12.18 10.90L12.18 10.90L12.18 10.90Q12.35 11.22 12.37 12.29L12.37 12.29L12.37 12.29Q12.37 12.50 12.36 13.00L12.36 13.00L12.36 13.00Q12.36 13.43 12.36 13.67L12.36 13.67L12.36 13.67Q12.36 14.90 12.45 15.34L12.45 15.34L12.45 15.34Q12.63 16.20 13.29 16.34L13.29 16.34L13.29 16.34Q13.45 16.38 13.62 16.38L13.62 16.38L13.62 16.38Q13.91 16.38 14.27 16.25L14.27 16.25L14.27 16.25Q14.64 16.11 14.85 15.99L14.85 15.99L14.85 15.99Q15.06 15.87 15.45 15.63L15.45 15.63L15.45 15.63Q15.45 15.19 15.46 14.09L15.46 14.09L15.46 14.09Q15.46 12.99 15.46 12.48L15.46 12.48L15.46 12.48Q15.46 11.29 15.45 11.00L15.45 11.00L16.53 10.51L16.71 10.66L16.71 10.66Q16.54 12.69 16.54 14.55L16.54 14.55L16.54 14.55Q16.54 14.83 16.55 14.98L16.55 14.98L16.55 14.98Q16.55 15.12 16.57 15.35L16.57 15.35L16.57 15.35Q16.58 15.58 16.63 15.70L16.63 15.70L16.63 15.70Q16.67 15.81 16.74 15.94L16.74 15.94L16.74 15.94Q16.82 16.07 16.94 16.13L16.94 16.13L16.94 16.13Q17.06 16.18 17.23 16.18L17.23 16.18L17.23 16.18Q17.65 16.18 18.45 15.59L18.45 15.59ZM23.16 17.23L23.02 17.14L23.02 17.14Q23.02 17.06 23.09 15.66L23.09 15.66L23.09 15.66Q23.16 14.26 23.16 13.32L23.16 13.32L23.16 13.32Q23.16 12.39 22.91 11.94L22.91 11.94L22.91 11.94Q22.67 11.49 22.01 11.49L22.01 11.49L22.01 11.49Q21.72 11.49 21.32 11.64L21.32 11.64L21.32 11.64Q20.92 11.79 20.71 11.90L20.71 11.90L20.71 11.90Q20.51 12.02 20.38 12.11L20.38 12.11L20.38 12.11Q20.30 13.95 20.30 15.14L20.30 15.14L20.30 15.14Q20.30 16.17 20.34 16.89L20.34 16.89L19.39 17.23L19.20 17.12L19.20 17.12Q19.21 16.54 19.25 15.25L19.25 15.25L19.25 15.25Q19.30 13.95 19.30 13.27L19.30 13.27L19.30 13.27Q19.30 12.15 19.21 11.81L19.21 11.81L19.21 11.81Q19.09 11.32 18.74 11.32L18.74 11.32L18.74 11.32Q18.40 11.32 17.69 11.73L17.69 11.73L17.52 11.46L17.52 11.46Q18.69 10.52 19.44 10.49L19.44 10.49L19.44 10.49Q20.30 10.49 20.30 11.53L20.30 11.53L20.42 11.61L20.42 11.61Q20.51 11.57 20.85 11.38L20.85 11.38L20.85 11.38Q21.18 11.18 21.35 11.10L21.35 11.10L21.35 11.10Q21.52 11.02 21.81 10.89L21.81 10.89L21.81 10.89Q22.09 10.77 22.34 10.72L22.34 10.72L22.34 10.72Q22.59 10.66 22.83 10.66L22.83 10.66L22.83 10.66Q23.21 10.66 23.55 10.86L23.55 10.86L23.55 10.86Q23.88 11.05 24.08 11.39L24.08 11.39L24.31 11.42L24.31 11.42Q25.23 10.94 25.72 10.79L25.72 10.79L25.72 10.79Q26.17 10.65 26.55 10.65L26.55 10.65L26.55 10.65Q27.28 10.65 27.66 11.03L27.66 11.03L27.66 11.03Q27.73 11.11 27.79 11.21L27.79 11.21L27.79 11.21Q27.84 11.31 27.87 11.47L27.87 11.47L27.87 11.47Q27.90 11.62 27.92 11.76L27.92 11.76L27.92 11.76Q27.94 11.89 27.94 12.13L27.94 12.13L27.94 12.13Q27.95 12.37 27.95 12.55L27.95 12.55L27.95 12.55Q27.95 12.73 27.94 13.06L27.94 13.06L27.94 13.06Q27.94 13.39 27.94 13.62L27.94 13.62L27.94 15.45L27.94 15.45Q27.94 16.37 28.65 16.37L28.65 16.37L28.65 16.37Q28.98 16.37 29.73 15.80L29.73 15.80L29.92 15.80L30.02 16.10L30.02 16.10Q29.61 16.47 29.33 16.69L29.33 16.69L29.33 16.69Q29.05 16.92 28.61 17.13L28.61 17.13L28.61 17.13Q28.17 17.34 27.78 17.34L27.78 17.34L27.78 17.34Q27.32 17.34 27.08 17.02L27.08 17.02L27.08 17.02Q26.83 16.70 26.83 16.26L26.83 16.26L26.83 16.26Q26.83 16.25 26.87 15.10L26.87 15.10L26.87 15.10Q26.90 13.95 26.90 13.32L26.90 13.32L26.90 13.32Q26.90 12.41 26.63 11.95L26.63 11.95L26.63 11.95Q26.36 11.49 25.71 11.49L25.71 11.49L25.71 11.49Q24.96 11.49 24.14 11.96L24.14 11.96L24.14 11.96Q24.12 13.25 24.12 13.90L24.12 13.90L24.12 13.90Q24.12 15.39 24.20 16.84L24.20 16.84L23.16 17.23ZM34.89 11.05L34.89 11.05L35.63 10.62L35.70 10.69L35.70 10.69Q35.62 12.36 35.62 13.75L35.62 13.75L35.62 13.75Q35.62 13.88 35.60 14.16L35.60 14.16L35.60 14.16Q35.59 14.44 35.59 14.65L35.59 14.65L35.59 14.65Q35.59 14.86 35.59 15.14L35.59 15.14L35.59 15.14Q35.59 15.42 35.63 15.61L35.63 15.61L35.63 15.61Q35.66 15.81 35.72 15.99L35.72 15.99L35.72 15.99Q35.78 16.17 35.89 16.27L35.89 16.27L35.89 16.27Q36.00 16.37 36.16 16.37L36.16 16.37L36.16 16.37Q36.39 16.37 37.07 16.11L37.07 16.11L37.17 16.45L37.17 16.45Q37.13 16.47 36.98 16.56L36.98 16.56L36.98 16.56Q36.83 16.65 36.77 16.69L36.77 16.69L36.77 16.69Q36.72 16.72 36.57 16.80L36.57 16.80L36.57 16.80Q36.43 16.88 36.35 16.93L36.35 16.93L36.35 16.93Q36.28 16.97 36.15 17.03L36.15 17.03L36.15 17.03Q36.03 17.10 35.94 17.13L35.94 17.13L35.94 17.13Q35.85 17.16 35.75 17.20L35.75 17.20L35.75 17.20Q35.65 17.23 35.57 17.25L35.57 17.25L35.57 17.25Q35.49 17.26 35.41 17.26L35.41 17.26L35.41 17.26Q35.05 17.26 34.86 17.05L34.86 17.05L34.86 17.05Q34.68 16.83 34.61 16.43L34.61 16.43L34.40 16.38L34.40 16.38Q33.07 17.26 32.12 17.26L32.12 17.26L32.12 17.26Q31.56 17.26 31.14 17.01L31.14 17.01L31.14 17.01Q30.73 16.76 30.50 16.34L30.50 16.34L30.50 16.34Q30.28 15.93 30.17 15.47L30.17 15.47L30.17 15.47Q30.06 15.00 30.06 14.50L30.06 14.50L30.06 14.50Q30.06 13.89 30.17 13.33L30.17 13.33L30.17 13.33Q30.29 12.77 30.55 12.26L30.55 12.26L30.55 12.26Q30.81 11.76 31.19 11.38L31.19 11.38L31.19 11.38Q31.57 11.01 32.14 10.79L32.14 10.79L32.14 10.79Q32.70 10.57 33.39 10.57L33.39 10.57L33.39 10.57Q33.75 10.57 34.16 10.69L34.16 10.69L34.16 10.69Q34.56 10.82 34.89 11.05ZM34.58 15.70L34.58 15.70L34.58 12.48L34.58 12.48Q34.58 12.24 34.58 12.11L34.58 12.11L34.58 12.11Q34.57 11.98 34.51 11.81L34.51 11.81L34.51 11.81Q34.46 11.63 34.36 11.52L34.36 11.52L34.36 11.52Q33.91 11.05 33.41 11.05L33.41 11.05L33.41 11.05Q32.63 11.05 32.07 11.59L32.07 11.59L32.07 11.59Q31.79 11.87 31.56 12.49L31.56 12.49L31.56 12.49Q31.34 13.12 31.32 14.08L31.32 14.08L31.32 14.08Q31.29 15.12 31.71 15.76L31.71 15.76L31.71 15.76Q32.07 16.33 33.10 16.33L33.10 16.33L33.10 16.33Q33.77 16.33 34.58 15.70ZM39.45 16.84L39.45 16.84L38.47 17.17L38.26 17.08L38.26 17.08Q38.38 13.88 38.38 12.92L38.38 12.92L38.38 12.92Q38.38 12.10 38.28 11.70L38.28 11.70L38.28 11.70Q38.19 11.31 37.86 11.31L37.86 11.31L37.86 11.31Q37.73 11.31 37.54 11.38L37.54 11.38L37.54 11.38Q37.36 11.46 37.21 11.54L37.21 11.54L37.21 11.54Q37.07 11.63 36.82 11.80L36.82 11.80L36.58 11.49L36.58 11.49Q37.00 11.19 37.23 11.03L37.23 11.03L37.23 11.03Q37.47 10.86 37.85 10.68L37.85 10.68L37.85 10.68Q38.23 10.49 38.47 10.49L38.47 10.49L38.47 10.49Q38.95 10.49 39.18 10.75L39.18 10.75L39.18 10.75Q39.41 11.01 39.48 11.45L39.48 11.45L39.59 11.53L39.59 11.53Q40.35 11.07 40.99 10.80L40.99 10.80L40.99 10.80Q41.63 10.52 42.23 10.52L42.23 10.52L42.23 10.52Q42.96 10.52 43.31 10.93L43.31 10.93L43.31 10.93Q43.44 11.09 43.51 11.59L43.51 11.59L43.51 11.59Q43.57 12.09 43.58 12.48L43.58 12.48L43.58 12.48Q43.59 12.86 43.59 13.51L43.59 13.51L43.59 13.51Q43.59 15.17 43.61 15.34L43.61 15.34L43.61 15.34Q43.64 16.00 43.88 16.15L43.88 16.15L43.88 16.15Q44.02 16.25 44.26 16.25L44.26 16.25L44.26 16.25Q44.65 16.25 45.38 15.69L45.38 15.69L45.57 15.69L45.69 15.98L45.69 15.98Q45.16 16.51 44.56 16.87L44.56 16.87L44.56 16.87Q43.96 17.23 43.49 17.23L43.49 17.23L43.49 17.23Q42.49 17.23 42.49 16.00L42.49 16.00L42.55 13.60L42.55 13.60Q42.55 12.48 42.28 11.91L42.28 11.91L42.28 11.91Q42 11.35 41.30 11.35L41.30 11.35L41.30 11.35Q40.56 11.35 39.49 12.20L39.49 12.20L39.49 12.20Q39.40 14.38 39.40 15.46L39.40 15.46L39.40 15.46Q39.40 15.86 39.45 16.84Z"></path></g><!----><!----></svg>